<?xml version="1.0" encoding="UTF-8" standalone="no"?>
<svg width="480px" height="372px" viewBox="0 0 480 372" version="1.1" xmlns="http://www.w3.org/2000/svg" xmlns:xlink="http://www.w3.org/1999/xlink" xmlns:sketch="http://www.bohemiancoding.com/sketch/ns">
    <!-- Generator: Sketch 3.3.2 (12043) - http://www.bohemiancoding.com/sketch -->
    <title>logo</title>
    <desc>Created with Sketch.</desc>
    <defs></defs>
    <g id="Page-1" stroke="none" stroke-width="1" fill="none" fill-rule="evenodd" sketch:type="MSPage">
        <g id="logo" sketch:type="MSArtboardGroup">
            <g id="2klogo_DEF" sketch:type="MSLayerGroup" transform="translate(52.000000, 36.000000)">
                <path d="M186.057,227.935 C186.057,231.027 187.365,232.972 190.607,233.135 L190.607,235.086 C182.324,237.365 176.789,244.025 174.027,250.689 C168.666,243.217 162.002,237.199 153.383,235.086 L153.383,233.135 L155.98,233.135 C160.533,233.135 161.676,230.369 161.676,224.195 L161.676,187.941 C161.676,182.252 159.072,180.142 155.98,180.142 C154.195,180.142 152.084,181.93 150.939,183.224 L149.645,181.115 L171.1,161.608 C179.068,165.998 185.893,170.553 186.057,181.115 L212.715,161.608 C217.105,167.945 223.605,174.293 231.899,177.539 L231.899,179.49 C225.562,179.49 223.119,181.603 223.119,187.941 L223.119,224.844 C223.119,230.045 225.562,232.324 228.321,232.324 C230.601,232.324 232.062,231.027 234.503,229.394 L235.317,231.027 L211.902,250.689 C198.902,242.404 198.74,233.135 198.74,227.609 L198.74,185.67 C198.74,182.74 197.93,179.006 194.836,179.006 C193.215,179.006 192.232,179.656 190.936,180.469 L186.057,183.885 L186.057,227.935" id="Fill-1" fill="#1A1918" sketch:type="MSShapeGroup"></path>
                <path d="M345.704,204.035 C353.993,204.035 362.122,195.91 365.21,189.086 L364.882,188.754 C362.608,190.387 359.192,191.033 356.11,191.033 C347.327,191.033 338.548,185.344 332.86,179.006 C330.427,180.142 329.937,183.064 329.937,185.508 C329.937,194.127 336.274,204.035 345.704,204.035 L345.704,204.035 Z M349.772,206.965 C340.829,206.965 332.048,214.599 328.47,222.732 C340.991,222.732 352.69,227.773 363.257,234.433 C365.046,232.162 365.54,229.068 365.54,226.31 C365.54,216.555 360.501,206.965 349.772,206.965 L349.772,206.965 Z M350.259,138.852 C365.54,138.852 379.675,149.094 379.675,165.347 C379.675,180.953 368.786,182.74 367.161,190.06 C375.944,191.681 383.093,199.488 383.093,208.586 C383.093,227.773 367.161,228.258 351.396,251.994 C344.894,247.445 328.63,242.242 320.995,242.242 C316.929,242.242 314.817,243.863 312.862,247.281 L310.753,246.144 C316.767,238.34 322.294,229.883 326.519,220.949 C318.56,217.043 312.376,211.515 312.376,201.924 C312.376,182.418 337.735,177.863 344.569,161.608 C348.626,166.486 353.993,170.553 360.339,170.553 C367.161,170.553 373.823,166.972 373.823,159.011 C373.823,146.812 359.354,141.772 350.259,141.772 L350.259,138.852 L350.259,138.852 Z" id="Fill-2" fill="#1A1918" sketch:type="MSShapeGroup"></path>
                <g id="Group-8" sketch:type="MSShapeGroup">
                    <path d="M332.562,145.76 C328.665,142.182 324.112,138.279 318.913,135.683 L318.913,102.998 L318.993,103.107 C318.993,103.107 318.927,102.721 318.913,102.107 L318.913,101.576 C318.983,98.918 320.151,93.736 328.247,93.857 C328.604,93.861 328.944,93.861 329.269,93.859 C331.854,96.527 332.562,99.982 332.562,104.146 L332.562,145.76 L332.562,145.76 Z M343.315,77.406 C339.817,79.611 335.61,81.859 330.583,83.875 C319.022,88.504 308.806,88.732 304.118,88.517 C300.858,88.744 297.63,88.799 294.526,88.703 L294.526,136.17 C294.526,138.117 294.202,142.346 288.511,142.834 L288.511,144.788 C301.028,148.197 312.079,155.518 321.347,163.967 C325.901,155.192 331.913,151.937 340.856,149.828 C354.353,146.574 356.946,143.158 356.946,114.551 C356.946,93.93 355.431,86.764 343.315,77.406 L343.315,77.406 Z" id="Fill-3" fill="#1A1918"></path>
                    <path d="M323.419,67.215 C320.237,67.215 317.663,64.641 317.663,61.46 C317.663,58.277 320.237,55.695 323.419,55.695 C326.603,55.695 329.181,58.277 329.181,61.46 C329.181,64.641 326.603,67.215 323.419,67.215 L323.419,67.215 Z M361.485,6.846 C362.546,6.111 362.972,4.646 362.442,3.318 C361.829,1.77 360.169,0.982 358.729,1.547 C357.31,2.123 356.64,3.84 357.243,5.38 C357.276,5.461 357.321,5.529 357.362,5.605 C353.993,5.912 351.106,9.169 350.655,13.408 C350.208,17.769 352.499,21.65 355.856,22.516 C355.265,24.357 353.808,27.752 350.739,29.433 C346.405,31.791 341.126,34.01 339.862,25.767 C339.569,23.855 339.37,22.547 339.233,21.646 C341.872,20.137 343.399,16.605 342.804,12.822 C342.272,9.244 340.013,6.474 337.286,5.62 C337.8,4.838 337.931,3.798 337.542,2.817 C336.919,1.277 335.269,0.49 333.829,1.047 C332.409,1.62 331.741,3.338 332.347,4.877 C332.505,5.28 332.739,5.629 333.021,5.92 C330.157,7.293 328.437,10.956 329.05,14.937 C329.556,18.2 331.493,20.802 333.897,21.88 L333.124,23.189 L333.628,25.164 C333.628,25.164 334.108,34.37 325.876,36.728 C317.647,39.115 316.774,28.682 316.774,28.682 L313.526,26.901 C315.392,24.793 315.938,21.334 314.669,18.027 C313.187,14.074 309.612,11.676 306.313,12.181 C306.587,11.488 306.601,10.668 306.298,9.894 C305.675,8.346 304.024,7.564 302.585,8.121 C301.155,8.695 300.489,10.404 301.103,11.953 C301.476,12.896 302.243,13.556 303.114,13.796 C301.013,15.858 300.331,19.494 301.665,22.965 C303.054,26.603 306.196,28.926 309.253,28.883 L308.253,32.736 C308.253,32.736 316.292,39.855 305.099,45.703 C293.88,51.537 293.675,40.272 293.528,40.198 C293.448,40.16 292.228,39.971 291.253,39.821 C292.876,37.125 292.343,33.146 289.714,30.147 C287.378,27.488 284.075,26.355 281.347,27.006 C281.312,26.84 281.267,26.674 281.206,26.51 C280.601,24.971 278.931,24.18 277.509,24.748 C276.062,25.322 275.405,27.031 276.019,28.578 C276.3,29.291 276.815,29.836 277.425,30.167 C276.151,32.836 276.772,36.509 279.245,39.336 C281.632,42.062 285.052,43.18 287.817,42.416 L287.708,45.042 C287.708,45.042 294.743,48.392 290.028,53.978 C285.294,59.584 280.571,59.074 276.96,55.064 L274.739,55.186 C275.673,52.482 274.798,49.016 272.284,46.452 C269.687,43.803 266.118,42.894 263.374,43.906 C263.36,43.56 263.298,43.214 263.163,42.871 C262.558,41.33 260.892,40.544 259.468,41.109 C258.021,41.683 257.362,43.391 257.976,44.941 C258.376,45.938 259.22,46.619 260.161,46.814 C258.825,49.583 259.612,53.41 262.337,56.198 C265.647,59.562 270.513,60.131 273.259,57.51 C275.454,59.502 281.558,64.808 284.497,64.939 L288.812,70.99 C288.071,71.793 287.819,73.025 288.292,74.17 C288.897,75.713 290.567,76.494 291.997,75.918 C292.081,75.883 292.155,75.832 292.235,75.793 L295.048,79.74 C295.048,79.74 310.306,81.94 328.427,74.683 C349.569,66.209 358.384,54.146 358.384,54.146 L357.69,52.066 L357.286,49.83 C357.505,49.801 357.718,49.756 357.929,49.672 C359.358,49.107 360.036,47.4 359.415,45.86 C358.872,44.498 357.524,43.726 356.229,43.94 L354.765,35.791 C354.765,35.791 358.905,27.761 359.062,22.406 C361.874,21.508 364.132,18.562 364.509,14.838 C364.851,11.525 363.597,8.486 361.485,6.846 L361.485,6.846 Z" id="Fill-5" fill="#F8C330"></path>
                    <path d="M268.126,74.885 L250.767,86.457 L250.767,90.619 C251.149,90.538 251.517,90.49 251.872,90.49 C256.263,90.49 256.911,95.851 256.911,99.758 L256.911,146.574 C252.032,143.976 247.481,141.697 243.263,139.748 L243.276,90.979 C242.608,87.439 235.208,79.535 230.089,74.885 L214.111,85.53 L214.111,90.531 C218.234,90.774 218.873,95.943 218.873,99.758 L218.873,141.211 C218.873,141.26 218.863,141.307 218.861,141.359 L205.217,134.101 L205.217,93.932 C205.217,86.295 201.646,83.041 197.42,81.416 C187.662,77.676 184.896,76.538 184.896,74.097 C184.896,71.014 190.098,69.381 194.975,69.381 C196.605,69.381 198.393,69.544 200.014,69.707 L200.014,66.785 C198.393,66.622 196.77,66.461 194.975,66.461 C182.787,66.461 170.76,72.96 170.76,86.62 C170.76,92.957 174.33,98.971 180.838,101.08 L180.838,139.912 C180.838,143.976 175.305,143.976 172.383,143.976 L172.383,145.924 C181,148.357 187.826,155.844 191.73,163.967 L213.799,147.486 C224.164,149.568 232.827,156.918 241.792,163.967 C246.021,156.326 255.126,151.452 266.019,147.711 C276.259,144.14 281.298,141.533 281.298,134.058 L281.298,97.972 C281.298,87.406 273.491,79.762 268.126,74.885" id="Fill-6" fill="#1A1918"></path>
                    <path d="M60.891,205.783 L60.891,184.449 C61.762,184.015 62.525,183.724 62.996,183.724 C67.387,183.724 73.402,192.17 75.518,195.91 L60.891,205.783 L60.891,205.783 Z M57.215,208.264 L55.035,209.732 L55.035,188.275 C55.453,187.906 56.26,187.306 57.215,186.656 L57.215,208.264 L57.215,208.264 Z M57.215,237.262 C55.6,236.385 55.035,234.187 55.035,230.865 L55.035,212.33 L57.215,210.961 L57.215,237.262 L57.215,237.262 Z M106.406,233.459 C104.938,234.273 103.15,235.254 101.854,235.254 C97.949,235.254 97.465,229.889 96.977,226.961 C95.189,214.769 90.801,202.736 81.371,194.447 L93.234,186.156 C94.371,185.344 95.84,184.045 95.84,182.578 C95.84,182.094 95.725,181.535 95.504,180.912 C88.557,178.207 82.201,174.318 76.691,169.48 C70.518,174.58 64.223,179.271 57.695,183.701 C57.695,183.701 55.771,185.023 55.035,185.508 L55.035,182.89 L55.02,182.293 L55.037,143.607 C55.037,138.08 54.98,128.824 41.969,120.539 L21.079,138.09 L21.079,140.668 C22.611,139.625 23.859,138.904 25.553,138.904 C28.32,138.904 30.658,141.139 30.658,145.196 L30.654,173.068 C26.748,172.142 21.799,172.123 15.416,174.047 L15.032,204.611 L16.795,205.06 C17.15,202.148 17.126,200.187 18.606,198.469 C20.413,196.369 23.731,196.014 26.809,198.666 L30.65,201.978 L30.648,219.221 C25.31,218.101 19.711,218.101 14.84,219.998 C14.84,219.998 10.695,220.726 6.141,225.4 C2.667,228.967 -3.216,238.597 2.188,252.474 C8.081,267.623 24.968,272.049 39.201,266.508 L38.146,263.787 C29.668,267.082 14.354,267.633 9.94,256.265 C7.049,248.84 11.96,243.096 18.323,240.617 C19.67,240.094 21.049,239.793 22.44,239.664 C31.012,242.279 37.66,247.787 43.008,254.756 C49.346,248.418 56.496,242.73 64.305,238.176 L63.492,236.228 C62.791,236.623 61.852,237.084 60.891,237.379 L60.891,208.652 L62.023,207.939 C68.855,214.769 71.777,223.703 72.59,233.135 C73.402,242.89 74.707,249.553 83.643,254.756 C91.449,248.096 99.086,241.269 107.217,235.094 L106.406,233.459 L106.406,233.459 Z" id="Fill-7" fill="#1A1918"></path>
                </g>
                <path d="M137.014,144.14 C135.127,143.316 133.729,141.258 133.729,138.174 L133.729,90.277 C133.729,89.722 133.771,89.239 133.811,88.748 C134.91,88.951 135.982,89.144 137.014,89.329 L137.014,144.14 L137.014,144.14 Z M170.281,130.705 C170.281,130.705 166.131,151.529 154.592,159.155 C146.797,164.308 132.25,169.49 119.797,166.125 C106.619,163.67 90.947,152.893 89.844,125.945 C89,105.361 100.916,94.28 109.102,88.099 C109.164,88.728 109.213,89.418 109.213,90.277 L109.213,139.806 C109.213,145.363 109.375,154.677 122.455,163.01 L145.98,143.242 L145.164,141.601 C143.396,142.785 142.133,143.777 140.711,144.246 L140.711,89.982 C143.684,90.498 145.705,90.832 145.705,90.832 C157.242,88.007 170.65,77.614 169.629,63.973 L165.994,63.973 C165.994,63.973 161.318,77.738 154.047,74.492 C146.775,71.245 115.842,50.796 100.666,55.307 C100.607,55.324 100.555,55.343 100.498,55.361 L75.486,72.939 C73.059,76.808 71.113,81.371 69.736,86.827 L72.853,86.997 C72.853,86.997 75.273,76.439 82.371,74.492 C86.695,73.308 96.869,76.522 108.068,80.436 C84.902,85.733 68.717,103.12 68.717,126.244 C68.717,153.446 91.494,175.488 120.816,175.488 C169.563,175.488 172.877,130.705 172.877,130.705 L170.281,130.705 L170.281,130.705 Z" id="Fill-9" fill="#1A1918" sketch:type="MSShapeGroup"></path>
                <g id="Group-13" fill="#1A1918" sketch:type="MSShapeGroup">
                    <path d="M140.748,232.57 C138.033,232.57 135.641,230.318 135.641,226.314 L135.641,188.779 C135.641,187.162 135.809,185.834 136.154,184.74 C126.957,186.861 117.762,186.816 109.096,184.933 L106.094,184.342 L105.381,187.152 L111.695,188.535 L111.695,188.779 L111.695,227.918 C111.695,233.371 111.854,242.514 124.631,250.691 L147.609,231.289 L146.814,229.678 C144.422,231.289 142.982,232.57 140.748,232.57" id="Fill-10"></path>
                    <path d="M278.067,229.23 L271.892,233.785 C270.587,234.762 269.288,234.922 268.476,234.922 C265.382,234.922 264.409,230.531 264.409,225.662 L264.409,178.514 C268.638,181.93 273.19,184.855 278.067,186.969 L278.067,229.23 L278.067,229.23 Z M307.425,249.18 C305.151,246.252 302.446,238.662 302.446,236.228 L302.446,189.572 C302.446,183.724 305.376,181.441 311.554,181.441 L311.554,179.49 C299.2,176.887 287.337,170.713 278.718,161.608 C262.3,178.025 240.022,177.053 240.022,188.914 L240.022,228.258 C240.022,238.014 241.655,242.73 255.144,250.689 C262.464,244.025 270.263,237.851 278.392,232.162 C278.392,251.994 291.331,259.908 291.331,272.097 C291.331,284.293 279.146,288.683 268.747,288.687 C256.708,287.168 246.109,277.973 235.508,269.614 C203.59,250.947 179.982,259.139 166.205,268.674 C166.178,268.715 166.148,268.761 166.122,268.803 C159.141,273.871 154.051,281.075 151.123,290.212 C149.797,294.343 148.934,298.223 148.448,301.87 C148.465,301.87 148.479,301.87 148.494,301.871 C148.492,301.887 148.488,301.904 148.486,301.92 C150.59,301.937 149.164,302.074 151.287,301.945 C153.92,291.722 164.352,283.232 174.645,279.23 C198.865,269.808 210.393,277.529 233.12,285.492 C251.737,292.012 266.958,291.652 269.759,291.519 C271.243,291.584 272.657,291.607 273.94,291.607 C291.007,291.607 311.812,281.363 311.812,261.857 C311.812,255.844 309.542,252.109 307.425,249.18 L307.425,249.18 Z" id="Fill-12"></path>
                </g>
            </g>
        </g>
    </g>
</svg>