<?xml version="1.0" encoding="utf-8"?>
<!-- Generator: Adobe Illustrator 15.0.0, SVG Export Plug-In  -->
<!DOCTYPE svg PUBLIC "-//W3C//DTD SVG 1.1//EN" "http://www.w3.org/Graphics/SVG/1.1/DTD/svg11.dtd" [
	<!ENTITY ns_flows "http://ns.adobe.com/Flows/1.0/">
]>
<svg version="1.1"
	 xmlns="http://www.w3.org/2000/svg" xmlns:xlink="http://www.w3.org/1999/xlink" xmlns:a="http://ns.adobe.com/AdobeSVGViewerExtensions/3.0/"
	 x="0px" y="0px" width="540px" height="207px" viewBox="-0.6 -0.5 540 207"
	 overflow="visible" enable-background="new -0.6 -0.5 540 207" xml:space="preserve">
<defs>
</defs>
<path fill-rule="evenodd" clip-rule="evenodd" d="M270.9,10.7c5.6-0.9,9.6,4.7,7.1,10.2c-1.3,2.8-5.6,4.9-9.3,2.9
	c-3.7-2-4.2-8.8-1.3-11.6C268.4,11.3,269.3,11,270.9,10.7z"/>
<path fill-rule="evenodd" clip-rule="evenodd" d="M223.3,2c41.6-1.1,85.5-1.8,128.6-2c0.3,10.4,0.9,22.7,1.1,32.3
	c-26.4,0.6-52.6,0.9-79.7,1.1c-22.3-1.1-49.8-0.6-69.6-1.1c0-2.1,0-4.2,0-6.4c0,0,0.1-0.7,0-0.3c0-0.5-0.1,0,0-0.5
	c0.5-2.7-0.3-6-0.4-9.1c-0.1-1.7,0.2-3.4,0.2-5.1c0-3.1-0.2-5.5,0-8.5c5.8-1.1,13.2,0.7,18.9-0.5 M259.3,17.4
	c0,7.6,5.8,12.8,13.4,12.5c7.4-0.2,13-5.7,12-14.3c-0.7-6.3-6.3-10.1-11.1-10.5c-5.6-0.5-9.1,1.9-10.9,3.8
	C260.9,10.9,259.3,13.8,259.3,17.4z M209.2,5.3c-0.4,7.7-0.1,16.3-0.2,24.3c2-0.1,4.5,0.2,6.2-0.2c0-8.1,0-16.1,0-24.2
	C213.2,5.3,211.2,5.3,209.2,5.3z M224.6,8c-1.1-1-2.2-2.6-4-2.7c-0.1,0-0.2,0-0.4,0c0,8.1,0,16.2,0,24.3c2.1,0,4.1,0,6.2,0
	c0-4.1,0-8.2,0-12.3c3.8,3,7.2,6.5,10.5,9.6c1.1,1,2.3,2.5,4,2.7c0.4-7.7,0.1-16.3,0.2-24.3c-2.1,0-4.1,0-6.2,0c0,4.1,0,8.1,0,12.2
	C231.4,14.3,227.9,11.1,224.6,8z M243.7,5.3c0,1.8,0,3.5,0,5.3c1.6,0,3.3,0,4.9,0c-0.3,3.9,0.4,8.7,0,11.8c-0.1,1,0,1.9,0,2
	c0,0.1-0.4,0.5-0.4,0.9c0.1,1.4,0.6,2.9,0.4,4.4c2.3-0.2,3.9,0.1,6.2-0.2c0.1-6.2-0.2-13,0.2-18.9c1.5,0,3,0,4.5,0
	c0-1.8,0-3.5,0-5.3C254.2,5.3,248.9,5.3,243.7,5.3z M291.8,5.3c0,1.8,0,3.5,0,5.3c1.6,0,3.1,0,4.7,0c0,6.3,0,12.6,0,18.9
	c2,0.5,4.5-0.2,6.4,0.2c0.1-6.3-0.2-12.7,0.2-19.1c1.5,0,3,0,4.5,0c0-1.8,0-3.5,0-5.3C302.3,5.3,297.1,5.3,291.8,5.3z M310.1,5.3
	c0,8.5-0.1,16.2,0,24.3c2.1,0,4.1,0,6.2,0c0-3.3,0-6.5,0-9.8c2.4,0,4.8,0,7.3,0c0,3.3,0,6.5,0,9.8c2.2,0.1,4.2-0.1,6.2-0.2
	c0-8.1,0-16.1,0-24.2c-2.1,0-4.1,0-6.2,0c-0.1,3,0.2,6.5-0.2,9.3c-2.4,0-4.7,0-7.1,0c0-3.1,0-6.2,0-9.3
	C314.3,5.3,312.2,5.3,310.1,5.3z M333.9,5.3c0,8.1,0,16.2,0,24.3c5.1,0,10.2,0,15.3,0c-0.1-1.8,0.1-4.2,0-5.4c-2.6-0.3-6,0.2-9.1,0
	c0.1-1.4-0.2-3.3,0.2-4.4c2.5,0,5,0,7.4,0c-0.1-1.7-0.3-3.4-0.2-5.3c-2.5,0-5,0-7.4,0c0.1-1.3-0.2-3,0.2-4c2.7,0,5.4,0,8.2,0
	c0-1.8,0-3.5,0-5.3C343.6,5.3,338.8,5.3,333.9,5.3z"/>
<path fill-rule="evenodd" clip-rule="evenodd" d="M331.2,151.5c-4.5-7-16.7-10.4-25.4-5.4c-1.2,0.7-3.7,2.8-4,3.1
	c-3.4,3.7-5.1,8-5.4,13.4c-0.5,7.5,3.2,15.1,8,18.5c6.6,4.7,17.8,4.1,23.8-1.1C334.7,174.3,336.8,160.2,331.2,151.5z M327.9,164.1
	c-0.2,3.7-1.4,6.6-3.7,9.1c-0.2,0.2-1.9,1.6-2.7,2.1c-5.9,3.3-14.1,1.1-17.2-3.7c-3.8-5.9-2.3-15.4,2.1-19.3
	c4-3.5,11.6-3.9,16.1-0.7C325.8,153.9,328.3,159,327.9,164.1z"/>
<path fill-rule="evenodd" clip-rule="evenodd" d="M185.8,147.2c-4.2-2.6-9.2-3.4-16-3.3c-0.2,0-0.2,0.3-0.2,0.5
	c0,13.3,0,26.5,0,39.8c7.5,0.1,13-0.5,17.3-3.6C196.2,173.7,196.1,153.5,185.8,147.2z M175.5,152.9c3-0.1,6.4,1.5,8.3,2.9
	c4.6,3.3,4.6,13.6,0.5,17.1c-1.9,1.6-5.5,3.7-8.8,3.6"/>
<path fill-rule="evenodd" clip-rule="evenodd" d="M394.3,147.2c-1.7-4-8-3.6-14-3.6c-0.4,4.4-0.1,9.6-0.2,14.3
	c5.2,0,11,0.5,13.3-2.5C394.7,153.6,395.4,149.9,394.3,147.2z M389.2,151.8c-0.5,1.2-2.3,1-4.1,1.1c-0.1-1.3,0-2.8-0.1-4.2
	c1.5,0,3.2-0.1,3.9,0.7C389.3,150,389.5,151,389.2,151.8z"/>
<path fill-rule="evenodd" clip-rule="evenodd" d="M350.1,75.2c-0.9,2.7-2.3,5-3.3,7.6h7.3C352.8,80.3,352,77.3,350.1,75.2z"/>
<path fill-rule="evenodd" clip-rule="evenodd" d="M269.9,179c-8.7-0.2-18.3,0.3-26.6,0c0.2-0.3-0.1-2.6,0-3.3h21.4
	c-0.5-8.5,0.7-15.7,0.2-24.4c-7.8-0.2-14.6,0.3-21.4,0c-0.2-0.5-0.2-2.5-0.2-3.1c4-0.2,10.8-0.4,14.8,0l7.8-0.4
	c0.1-8.7,0.6-17.3,0.7-25.6c-17.4,0.4-36.3,0.7-54.3,1.1c-0.3,1.8,0.2,4,0,6.4c-0.1,2.1,0.2,9,0.2,9c-0.7-1.3-3.3-4.8-4.1-5.7
	c-3.8-4.9-8.7-8.1-14.2-9.9c-13.4-2.8-33.8-2.2-50-2.4l1.7,83.4c13.4-0.3,28.4-0.3,41.9-1.4c6.1-0.5,11.7-1.1,16.2-3.6
	c4.3-2.5,7-5.9,9.4-10.7c1.3,6.1,1.2,10.5,2.5,16.7c17.5-0.6,36.6,0.1,54-0.7C270.1,195.6,269.7,187.6,269.9,179z M195,195.6
	c-5.5,3-11.9,4.5-19.6,4.5h-24V129c0-0.3,0-0.5,0.2-0.5c17.1-0.1,32.8-0.8,43.4,4.7c10.5,5.4,16.6,15.5,16.9,31.2
	C212.2,180,205.3,190.1,195,195.6z M264.6,200.2h-45V129c0-0.3,0-0.5,0.2-0.5h42.7v15.4h-24.5c-0.4,3.7-0.1,8.2-0.2,12.2h22v15.3
	h-21.8c-0.4,4-0.1,8.8-0.2,13.1h26.9V200.2z"/>
<path fill-rule="evenodd" clip-rule="evenodd" d="M140.4,120.3c-5,0.3-9.8,0.3-14.7,0.5c-4.9,0.2-9.9-0.5-11.3,1.6
	c-0.1-0.3,0.2-1.1-0.4-0.9c-8.8,0.3-17.9,0.3-26.9,0.4l-2.5,5.6c0,0-5.9,14.7-8,19.3l-12.1-24.8c-3.7,0-7.1,0.3-10.9,0.2
	c-2.5,5.1-5.1,10.1-7.4,15.4l-0.3,0.5c0,0-0.2,0.6-0.6,1.3c-1.6,2.5-2.6,5.6-4.2,8.2c-2.9-8.2-6.3-16.8-8.9-24.7
	c-10.8,0.2-21.5,0.5-32.1,0.9v0.4c7.1,19.3,14.5,38.2,21.1,58.1c3.4,7,5.3,14.4,8.4,21.6c4.6-0.1,8.8,0.2,13.3,0.2
	c1-1,2.4-3.4,2.5-3.4l0.1-0.2l0.1-0.3c4.7-6.7,9.2-13.6,14-20.2c3.1,5.2,6.3,10.2,9.4,15.3l0.2,0.5l0.3,0.5c0.9,1.2,1.4,2.5,2.4,4
	c0.5,0.8,1.8,3.3,2.7,3.6c0.7,0.2,1.6-0.1,2.4-0.2c2.6-0.1,6-0.1,8.9-0.4c7.1-15.9,22.7-50.7,22.7-50.7c-0.4,0.9,1.9-4.3,1.9-4.3
	c-0.3,0.7-0.6,1.3-0.9,2l0.4-0.9l0.5-1.2l0,0c0,0,0,0,0,0c0.3,1,0.2,2.3,0.2,3.6c0,0,0.2,2.4,0.2,2.4c0.3,9.4,0.5,18.8,0.9,28l0,0.7
	l0,0.4c0.1,6.8,0.6,15,0.5,20.7c4.5,0.3,9.8-0.8,14.3-0.4c1.5,0.1,4.1-0.1,7.1-0.2c2.4-0.1,5.3,0.4,6.7-0.2c0.1-0.1,0.3-0.1,0.4-0.2
	v-82.6C140.7,120.5,140.5,120.4,140.4,120.3z M82.1,200.2h-5.3c-6-12-12.1-24-18.2-36c-6.1,11.9-12,23.9-18,36h-5.4
	c-9.5-23.9-19-47.7-28.7-71.4c6.6-0.4,14-0.1,20.9-0.2c4,11.4,8.4,22.5,12.3,34c6-10.9,10.8-23.1,16.7-34.1h4.7
	c5.3,11.3,10.7,22.5,16.2,33.6c4.4-11,8.4-22.3,12.5-33.4h20.7C101.2,152.6,91.6,176.3,82.1,200.2z M136.4,200.2H118V129
	c0-0.3,0-0.5,0.2-0.5h18.2V200.2z"/>
<path fill-rule="evenodd" clip-rule="evenodd" d="M539.3,123.4H511c-0.3,8.9-0.2,20.1-0.4,29.4c-0.5,0.4-1.2-0.9-1.8-1.5
	c-8.5-8.5-17.3-16.9-26.2-25.8c-1.2-1.2-1.9-2.7-2.9-3c-3.9-1.1-7.9-0.4-12.1-0.8c-0.2,0.4-0.3,0.8-0.4,1.3
	c0.4,25.1,0,52.9,0.1,78.3c0,0.3,0.5,0.8,1.1,1.4c0.1,0,0.1,0,0,0c0.2,0.2,0.4,0.4,0.6,0.6c1.7,0.5,4.6,0,6.9,0h21.1
	c0.3-9.5-0.4-18.7-0.4-27.8c8.8,7.7,17.9,16.4,27.1,24.7c1.3,1.2,2.8,3.2,3.8,3.5c2.7,0.7,8.7,0.2,11.4,0.4
	C539.5,177.8,539.2,149.9,539.3,123.4z M533.3,198.9c-3.2,0.8-4.5-0.9-5.4-1.8c-6-5.7-12.5-11.2-18.7-16.9
	c-6.3-5.8-12.3-11.8-18.7-17.3v36.1h-18v-70.8c4.5-0.8,5.9,2,8.5,4.4c11.4,10.6,23,21,34.3,31.4v-35.6h18
	C533.3,151.3,533.3,175.5,533.3,198.9z"/>
<path fill-rule="evenodd" clip-rule="evenodd" d="M349.8,189.1c1.5-2.1,5.3-10.1,6.4-12.5c0.4,7,0.1,19.6-0.5,27.4
	c9.6,0.3,19,0.3,29.4,0.5c0.7-8.7,0.5-17.5,1.1-26.5c7.1-1.2,14-1.9,18.9-5.1c3.2-2.1,4.9-5.4,7.3-7.8c-0.6,12.3-0.7,25.3-1.3,38.1
	c17.7,0.7,35.5,0.3,53.6,0.7l1-0.9l0-10.1c0-4.1,0-9.2-0.1-13.7c0-0.3-26.1,0.1-26.1-0.3c0-2.1,0-2.6,0-4.8c0-0.2,23.5,0.3,23.5,0.1
	c0-5.9,0-15.9,0.2-22.6c0-0.7-24.2,0.1-24.2-0.3c0-1.2,0-3.1,0-4.3c0-0.4,26.1,0.6,26.1,0.2c0-6.6,0-15,0-22c-0.4-1-0.7-2.1-1.2-3
	c-15-0.5-29.2,0.9-45.6,0.1c-1.6,0.4-2.8,1.1-3.5,3.4c-0.5,1.8,0,7.3-0.1,9.7c-1.1-2.1-3.1-4.9-3.7-5.6c-2-2.1-4.3-4.3-7.4-5.4
	c-3.2-1.2-7.4-1.2-11.6-1.3c-12.3-0.3-25.2-0.4-37.2-0.4c-0.4,7.1-0.1,15-0.2,22.3c-1.5-2.3-2.9-5.1-4.5-7.4c-0.5-0.7-1-1.1-1.7-2.4
	c-9.2-7.3-16.5-15.8-33.9-14c-2.7,0.3-5.6,1.5-8.4,2.4c-7.9,2.6-15.2,5.9-21.2,10.4c-4.3,3.2-7.8,6.3-9.8,11.4
	c-1.9,4.8-1.8,11.9-1.5,18.9c0.7,13,3.9,23.5,12,30c7.5,6,17.3,10.5,30.3,11.8c0.2,0,0.3,0,0.4,0.2h4.4c11.4-1.5,19.7-6.3,26-13.1
	 M351.9,171.5c-1.7,9.4-7.1,17.2-14.3,22.2c-7.4,5.1-17.5,8.1-29.6,6c-9.8-1.7-17.6-7.1-22.7-14.2c-5.5-7.6-8.3-18.5-6.2-29.2
	c1.9-9.9,7.7-17.5,15.3-22.5c2.5-1.7,8.3-4.3,12.5-5.1c16.7-3.1,30.8,2.6,38.7,13.4C350.6,149,354.1,159.9,351.9,171.5z
	 M412.6,152.6c-0.5,5.5-3.4,10.5-6.5,13.6c-5.5,5.5-14.2,8.3-25.8,7.4c-0.4,8.1-0.1,17-0.2,25.4h-18V129c0-0.3,0-0.5,0.2-0.5
	c9.5,0.3,18.7-0.4,26.7,0C402.8,129.2,414,136.8,412.6,152.6z M463.3,199.1c-15.2,0-32.1-0.1-44.5,0.2V129c0-0.3,0-0.5,0.2-0.5h42.1
	v15.1h-24.2c-0.4,3.6-0.1,7.9-0.2,11.8c6.8,0.4,14.5,0.1,21.6,0.2v15.1h-21.4c-0.4,3.9-0.1,8.7-0.2,12.9c9.2-0.1,16.6,0,26.5,0
	V199.1z"/>
<path fill-rule="evenodd" clip-rule="evenodd" d="M220.1,70.7c5.4,0.1,11.2,0.2,13.3-3.3c1.5-2.5,1.6-6.5-0.4-8.7
	c-2.4-2.7-7.4-2.3-12.7-2.4C219.9,60.8,220.2,66,220.1,70.7z M225.1,61.5c1.5,0,3.2-0.1,3.9,0.7c0.4,0.5,0.6,1.6,0.3,2.4
	c-0.5,1.2-2.3,1-4.1,1.1C225.1,64.4,225.2,62.9,225.1,61.5z"/>
<path fill-rule="evenodd" clip-rule="evenodd" d="M134.6,110.8c5.5,3.6,5.9,5,12.4,6.4c7.1,1.6,13.4,2.2,21,1
	c11.4-1.7,17.6-6.9,23.2-13.8c1.8-2.2,4-5.7,5.6-8c0.5,7.5-0.3,15.5-0.1,22.5c9.4-0.3,19-0.2,28.3-0.5c0-5.4,0.3-10.6,0.4-16
	c3.1,3.9,5.8,7.7,8.9,11.8c1,1.4,1.9,3.5,3.1,3.8c1.5,0.5,4.3-0.1,6.2,0c6.3,0.2,12.4,0.2,18.7,0.2c0.8-0.6,1.1-1.8,1.8-2.5
	c0.8,1,1.6,2.3,2.7,2.7c2.7,0.9,7.3-0.4,10.8-0.4c8.2,0,15.5-0.4,23.2-0.4c3.6,0,10.3-0.1,11.6-0.2c7.4-0.6,17.1-0.3,24.1-0.7
	c3.4-5.6,5-10.2,8.4-15.8h10.5c1.9,4.1,4.1,7.9,6.2,11.8l1.5,2c8,1.6,17.7-0.3,26.5-0.4c0.8,0.1,0.3-1,0.9-1.1
	c0.4,0.9,0.8,1.7,1.6,2.2h23.6c0.3-17.9,0.2-37.2,0.9-55.2c4.6,0,9.1,0,13.3-0.4c-0.1-7.8,0.2-15.1,0.2-22.9
	c-19.1,0.1-37.8-0.3-56.8-0.2c-0.2,8.2-0.4,15.7-0.7,23.4c5.2,0.4,10.4,0.3,15.4,1.1c-0.1,12.8,0.3,26,0.2,38.1
	C376.5,80.2,366.7,59,356.7,38c-4.5-0.2-9.1-0.2-13.4-0.5c-7.1,15.6-7.4,17.6-14.4,33.2l-7.5,17.2c-0.9,1.4-2.6,7.2-3.8,8.4
	c-0.2-0.7,0.6-5.2-0.2-5.4c-4.9,0-12.1,0.8-17.4,0.6c-0.7,0-6.5,0.4-8.1,0.1c0,0,0.2-2.5,0.1-3.3c5.3-1.2,15.8-0.2,21.7-0.8
	c-0.3-8-0.6-15.1-0.9-23c-6.4-0.2-14.4-0.2-21.2-0.2c-0.1-0.3,0-3.8,0-3.8c7.3-0.1,17.1-0.1,24.3-0.5c-0.1-7,0.2-15.5-0.2-21.6
	c-16.6-0.3-34.6-0.7-51.8-1.1c0,8.5-0.4,17.9-0.4,26.3c0,3,0.3,6.3-0.2,8.9c-0.1,0.6,0,1,0,1s0,0.6,0,1c0.2,1.9-0.1,4.1-0.2,6.2
	c-0.3,7.3,0,16-0.2,23.2c-5.5-6.4-10.9-14.6-16.3-21.2c2.2-1.6,5.6-5.4,7.4-8.2l1.8-3.3c2.9-6.8,0.3-15-2.2-21.1
	c-1.8-4.3-4.7-7.4-6.9-10c-1.3-0.1-2.3-1.1-3.5-1.6c-3.9-1.7-8.7-1.9-14-2c-11.1-0.2-23.7,0.1-34.3,0.5c-0.7,2.5,0.3,6.2-0.3,8.8
	c-5.4-5.4-13.8-10.4-23.8-11.3c-5-0.5-10.1,0.4-14.9,1.1c-2.4,0.4-4.8,0.7-7.1,1.3c-2.2,0.6-4.2,1.6-6.4,1.6c-2.7,2-5.7,3.1-8.2,5.3
	c-6.9,5.9-14,14.5-14.7,26.2c-0.7,11.1,2.9,22,6,30.5C126.8,103.3,131.3,108.7,134.6,110.8z M379.9,56.9V42.6c0-0.3,0-0.5,0.2-0.5
	h45.4v14.9h-13.8c-0.4,17.9-0.1,36.5-0.2,54.7h-17.8V56.9H379.9z M347.8,42.9h5.6c10.6,22.7,21.6,45.5,32.3,68.6h-18.9
	c-2.3-5.1-4.6-10.2-6.9-15.3h-18.2c-2.6,4.8-4.7,10.2-7.1,15.3h-18.9C326.5,88,337,66.5,347.8,42.9z M269.1,42
	c14.2-0.1,26.7,0,41.8,0v14.9h-23.8c-0.4,3.5-0.1,7.8-0.2,11.6c6.7,0.4,14.2,0.1,21.2,0.2v14.9c-6.4-0.1-14.1,0-21.1,0
	c-0.4,3.8-0.1,8.4-0.2,12.5h26.1v15.4h-43.9V42z M202.3,41.5c12.2,0.4,24.5-1.2,34.1,1.5c9.3,2.5,15.8,8.7,15.8,19.8
	c0,9.6-5.2,16.4-12.9,19.1c6.9,10,14.9,19.7,21.4,29.4h-16.3c-1.7,0-4.2,0.4-5.4,0c-1.2-0.4-2.6-3.5-3.6-5.1
	c-5.2-8-10.2-15.4-15.3-22.9v28h-17.8V41.5z M194.7,65.7l0.1,6.5l-9.2,0.2L169.3,72l-14,0.5v8.9l0.3,10.2l14.5,0.2c0,0-3.5,2.9-14,1
	c-2-0.4-5.7-5-5.7-5c-3-6-3.4-6.9-1-16.7c2.4-9.9,10.7-9.1,12.7-9.6c2-0.4,6.6,0.8,6.6,0.8l5.1,3.9l7.2,4.1l13.8-15.7L194.7,65.7z
	 M137.3,50c6.2-5.5,15.6-9.1,26.9-8.7c11.1,0.4,18.9,4.7,25.6,10c-3.3,4.5-6.7,9-10,13.6c-4.3-4-10.1-8.7-20-7.8
	c-9.3,0.8-16.4,8.4-16.5,19.2c-0.2,11.9,7,20.3,18.3,20.9c7,0.4,12-2.4,15.1-7.4c-4.9,0-11.3,0-16.7,0v-14h35.8
	c-0.1,11.4-2.9,19.3-8.4,25.6c-5.1,5.9-12.6,10.6-22.7,11.3c-17.9,1.1-30.7-7.9-36.1-20.9C121.8,75.3,128.1,58.1,137.3,50z"/>
</svg>
